<svg width="135" height="14" viewBox="0 0 135 14" fill="none" xmlns="http://www.w3.org/2000/svg">
<path d="M0.253172 10.7637V0.991672H4.14517C5.02251 0.991672 5.69451 1.24367 6.16117 1.74767C6.63717 2.24234 6.87517 2.92367 6.87517 3.79167C6.87517 4.65967 6.63717 5.34567 6.16117 5.84967C5.69451 6.34434 5.02251 6.59167 4.14517 6.59167H1.42917V10.7637H0.253172ZM1.42917 5.55567H4.14517C4.61184 5.55567 4.97117 5.43434 5.22317 5.19167C5.48451 4.949 5.61517 4.60367 5.61517 4.15567V3.42767C5.61517 2.97967 5.48451 2.63434 5.22317 2.39167C4.97117 2.149 4.61184 2.02767 4.14517 2.02767H1.42917V5.55567ZM8.49469 10.7637V3.53967H9.61469V4.86967H9.68469C9.81535 4.52434 10.0487 4.21634 10.3847 3.94567C10.7207 3.675 11.1827 3.53967 11.7707 3.53967H12.2047V4.65967H11.5467C10.94 4.65967 10.464 4.77634 10.1187 5.00967C9.78269 5.23367 9.61469 5.51834 9.61469 5.86367V10.7637H8.49469ZM16.297 10.9317C15.8116 10.9317 15.3683 10.843 14.967 10.6657C14.5656 10.4883 14.2203 10.2363 13.931 9.90967C13.651 9.57367 13.4316 9.17701 13.273 8.71967C13.1143 8.25301 13.035 7.73034 13.035 7.15167C13.035 6.58234 13.1143 6.06434 13.273 5.59767C13.4316 5.131 13.651 4.73434 13.931 4.40767C14.2203 4.07167 14.5656 3.81501 14.967 3.63767C15.3683 3.46034 15.8116 3.37167 16.297 3.37167C16.7823 3.37167 17.221 3.46034 17.613 3.63767C18.0143 3.81501 18.3596 4.07167 18.649 4.40767C18.9383 4.73434 19.1623 5.131 19.321 5.59767C19.4796 6.06434 19.559 6.58234 19.559 7.15167C19.559 7.73034 19.4796 8.25301 19.321 8.71967C19.1623 9.17701 18.9383 9.57367 18.649 9.90967C18.3596 10.2363 18.0143 10.4883 17.613 10.6657C17.221 10.843 16.7823 10.9317 16.297 10.9317ZM16.297 9.93767C16.9036 9.93767 17.3983 9.75101 17.781 9.37767C18.1636 9.00434 18.355 8.43501 18.355 7.66967V6.63367C18.355 5.86834 18.1636 5.29901 17.781 4.92567C17.3983 4.55234 16.9036 4.36567 16.297 4.36567C15.6903 4.36567 15.1956 4.55234 14.813 4.92567C14.4303 5.29901 14.239 5.86834 14.239 6.63367V7.66967C14.239 8.43501 14.4303 9.00434 14.813 9.37767C15.1956 9.75101 15.6903 9.93767 16.297 9.93767ZM27.4909 11.5617C27.4909 12.3083 27.1969 12.8543 26.6089 13.1997C26.0303 13.5543 25.1576 13.7317 23.9909 13.7317C22.8616 13.7317 22.0496 13.5777 21.5549 13.2697C21.0603 12.9617 20.8129 12.523 20.8129 11.9537C20.8129 11.5617 20.9156 11.2537 21.1209 11.0297C21.3263 10.815 21.6063 10.6563 21.9609 10.5537V10.3997C21.5316 10.1943 21.3169 9.85834 21.3169 9.39167C21.3169 9.02767 21.4336 8.75234 21.6669 8.56567C21.9003 8.36967 22.1989 8.22501 22.5629 8.13167V8.07567C22.1336 7.87034 21.7976 7.57634 21.5549 7.19367C21.3216 6.81101 21.2049 6.36767 21.2049 5.86367C21.2049 5.49967 21.2703 5.16367 21.4009 4.85567C21.5316 4.54767 21.7136 4.28634 21.9469 4.07167C22.1896 3.84767 22.4743 3.675 22.8009 3.55367C23.1369 3.43234 23.5103 3.37167 23.9209 3.37167C24.4343 3.37167 24.8916 3.46501 25.2929 3.65167V3.52567C25.2929 3.24567 25.3583 3.017 25.4889 2.83967C25.6196 2.653 25.8343 2.55967 26.1329 2.55967H27.2109V3.53967H25.8389V4.00167C26.1003 4.22567 26.3009 4.49634 26.4409 4.81367C26.5903 5.12167 26.6649 5.47167 26.6649 5.86367C26.6649 6.22767 26.5996 6.56367 26.4689 6.87167C26.3383 7.17967 26.1516 7.44567 25.9089 7.66967C25.6756 7.88434 25.3909 8.05234 25.0549 8.17367C24.7189 8.29501 24.3456 8.35567 23.9349 8.35567C23.7016 8.35567 23.4683 8.33234 23.2349 8.28567C22.9923 8.35101 22.7729 8.44901 22.5769 8.57967C22.3809 8.70101 22.2829 8.87367 22.2829 9.09767C22.2829 9.31234 22.3856 9.45701 22.5909 9.53167C22.7963 9.60634 23.0623 9.64367 23.3889 9.64367H24.9289C25.8249 9.64367 26.4736 9.81634 26.8749 10.1617C27.2856 10.4977 27.4909 10.9643 27.4909 11.5617ZM26.4409 11.6457C26.4409 11.3563 26.3289 11.123 26.1049 10.9457C25.8903 10.7777 25.5029 10.6937 24.9429 10.6937H22.5349C22.0869 10.899 21.8629 11.2257 21.8629 11.6737C21.8629 11.991 21.9796 12.2617 22.2129 12.4857C22.4556 12.7097 22.8616 12.8217 23.4309 12.8217H24.4669C25.0923 12.8217 25.5776 12.7237 25.9229 12.5277C26.2683 12.3317 26.4409 12.0377 26.4409 11.6457ZM23.9349 7.45967C24.4109 7.45967 24.7889 7.34767 25.0689 7.12367C25.3489 6.89034 25.4889 6.53567 25.4889 6.05967V5.66767C25.4889 5.19167 25.3489 4.84167 25.0689 4.61767C24.7889 4.38434 24.4109 4.26767 23.9349 4.26767C23.4589 4.26767 23.0809 4.38434 22.8009 4.61767C22.5209 4.84167 22.3809 5.19167 22.3809 5.66767V6.05967C22.3809 6.53567 22.5209 6.89034 22.8009 7.12367C23.0809 7.34767 23.4589 7.45967 23.9349 7.45967ZM28.7974 10.7637V3.53967H29.9174V4.86967H29.9874C30.1181 4.52434 30.3514 4.21634 30.6874 3.94567C31.0234 3.675 31.4854 3.53967 32.0734 3.53967H32.5074V4.65967H31.8494C31.2428 4.65967 30.7668 4.77634 30.4214 5.00967C30.0854 5.23367 29.9174 5.51834 29.9174 5.86367V10.7637H28.7974ZM39.1334 10.7637C38.7134 10.7637 38.41 10.6517 38.2234 10.4277C38.046 10.2037 37.934 9.92367 37.8874 9.58767H37.8174C37.6587 10.0357 37.3974 10.3717 37.0334 10.5957C36.6694 10.8197 36.2354 10.9317 35.7314 10.9317C34.966 10.9317 34.3687 10.7357 33.9394 10.3437C33.5194 9.95167 33.3094 9.41967 33.3094 8.74767C33.3094 8.06634 33.5567 7.54367 34.0514 7.17967C34.5554 6.81567 35.3347 6.63367 36.3894 6.63367H37.8174V5.91967C37.8174 5.40634 37.6774 5.01434 37.3974 4.74367C37.1174 4.473 36.688 4.33767 36.1094 4.33767C35.6707 4.33767 35.302 4.43567 35.0034 4.63167C34.714 4.82767 34.4714 5.089 34.2754 5.41567L33.6034 4.78567C33.7994 4.39367 34.112 4.06234 34.5414 3.79167C34.9707 3.51167 35.512 3.37167 36.1654 3.37167C37.0427 3.37167 37.724 3.58634 38.2094 4.01567C38.6947 4.445 38.9374 5.04234 38.9374 5.80767V9.78367H39.7634V10.7637H39.1334ZM35.9134 9.97967C36.1934 9.97967 36.45 9.94701 36.6834 9.88167C36.9167 9.81634 37.1174 9.72301 37.2854 9.60167C37.4534 9.48034 37.584 9.34034 37.6774 9.18167C37.7707 9.02301 37.8174 8.85034 37.8174 8.66367V7.47367H36.3334C35.6894 7.47367 35.218 7.56701 34.9194 7.75367C34.63 7.94034 34.4854 8.21101 34.4854 8.56567V8.85967C34.4854 9.21434 34.6114 9.48967 34.8634 9.68567C35.1247 9.88167 35.4747 9.97967 35.9134 9.97967ZM41.3619 10.7637V3.53967H42.4819V4.71567H42.5379C42.6219 4.529 42.7152 4.35634 42.8179 4.19767C42.9299 4.02967 43.0605 3.88501 43.2099 3.76367C43.3685 3.64234 43.5505 3.549 43.7559 3.48367C43.9612 3.40901 44.2039 3.37167 44.4839 3.37167C44.9599 3.37167 45.3985 3.48834 45.7999 3.72167C46.2012 3.94567 46.4999 4.319 46.6959 4.84167H46.7239C46.8545 4.44967 47.0972 4.109 47.4519 3.81967C47.8159 3.52101 48.3059 3.37167 48.9219 3.37167C49.6592 3.37167 50.2332 3.61434 50.6439 4.09967C51.0639 4.57567 51.2739 5.25234 51.2739 6.12967V10.7637H50.1539V6.32567C50.1539 5.68167 50.0279 5.19634 49.7759 4.86967C49.5239 4.543 49.1225 4.37967 48.5719 4.37967C48.3479 4.37967 48.1332 4.40767 47.9279 4.46367C47.7319 4.51967 47.5545 4.60367 47.3959 4.71567C47.2372 4.82767 47.1112 4.97234 47.0179 5.14967C46.9245 5.31767 46.8779 5.51834 46.8779 5.75167V10.7637H45.7579V6.32567C45.7579 5.68167 45.6319 5.19634 45.3799 4.86967C45.1279 4.543 44.7359 4.37967 44.2039 4.37967C43.9799 4.37967 43.7652 4.40767 43.5599 4.46367C43.3545 4.51967 43.1725 4.60367 43.0139 4.71567C42.8552 4.82767 42.7245 4.97234 42.6219 5.14967C42.5285 5.31767 42.4819 5.51834 42.4819 5.75167V10.7637H41.3619ZM58.8345 10.7637C58.4145 10.7637 58.1112 10.6517 57.9245 10.4277C57.7472 10.2037 57.6352 9.92367 57.5885 9.58767H57.5185C57.3599 10.0357 57.0985 10.3717 56.7345 10.5957C56.3705 10.8197 55.9365 10.9317 55.4325 10.9317C54.6672 10.9317 54.0699 10.7357 53.6405 10.3437C53.2205 9.95167 53.0105 9.41967 53.0105 8.74767C53.0105 8.06634 53.2579 7.54367 53.7525 7.17967C54.2565 6.81567 55.0359 6.63367 56.0905 6.63367H57.5185V5.91967C57.5185 5.40634 57.3785 5.01434 57.0985 4.74367C56.8185 4.473 56.3892 4.33767 55.8105 4.33767C55.3719 4.33767 55.0032 4.43567 54.7045 4.63167C54.4152 4.82767 54.1725 5.089 53.9765 5.41567L53.3045 4.78567C53.5005 4.39367 53.8132 4.06234 54.2425 3.79167C54.6719 3.51167 55.2132 3.37167 55.8665 3.37167C56.7439 3.37167 57.4252 3.58634 57.9105 4.01567C58.3959 4.445 58.6385 5.04234 58.6385 5.80767V9.78367H59.4645V10.7637H58.8345ZM55.6145 9.97967C55.8945 9.97967 56.1512 9.94701 56.3845 9.88167C56.6179 9.81634 56.8185 9.72301 56.9865 9.60167C57.1545 9.48034 57.2852 9.34034 57.3785 9.18167C57.4719 9.02301 57.5185 8.85034 57.5185 8.66367V7.47367H56.0345C55.3905 7.47367 54.9192 7.56701 54.6205 7.75367C54.3312 7.94034 54.1865 8.21101 54.1865 8.56567V8.85967C54.1865 9.21434 54.3125 9.48967 54.5645 9.68567C54.8259 9.88167 55.1759 9.97967 55.6145 9.97967ZM64.4836 0.991672H67.7596C68.3663 0.991672 68.917 1.09434 69.4116 1.29967C69.9063 1.505 70.3263 1.813 70.6716 2.22367C71.0263 2.625 71.297 3.13367 71.4836 3.74967C71.6703 4.35634 71.7636 5.06567 71.7636 5.87767C71.7636 6.68967 71.6703 7.40367 71.4836 8.01967C71.297 8.62634 71.0263 9.13501 70.6716 9.54567C70.3263 9.94701 69.9063 10.2503 69.4116 10.4557C68.917 10.661 68.3663 10.7637 67.7596 10.7637H64.4836V0.991672ZM67.7596 9.72767C68.161 9.72767 68.5296 9.66234 68.8656 9.53167C69.2016 9.39167 69.491 9.19101 69.7336 8.92967C69.9763 8.66834 70.163 8.35101 70.2936 7.97767C70.4336 7.59501 70.5036 7.16101 70.5036 6.67567V5.07967C70.5036 4.59434 70.4336 4.165 70.2936 3.79167C70.163 3.409 69.9763 3.087 69.7336 2.82567C69.491 2.56434 69.2016 2.36834 68.8656 2.23767C68.5296 2.09767 68.161 2.02767 67.7596 2.02767H65.6596V9.72767H67.7596ZM76.4802 10.9317C75.9856 10.9317 75.5376 10.843 75.1362 10.6657C74.7442 10.4883 74.4036 10.2363 74.1142 9.90967C73.8342 9.57367 73.6149 9.17701 73.4562 8.71967C73.3069 8.25301 73.2322 7.73034 73.2322 7.15167C73.2322 6.58234 73.3069 6.06434 73.4562 5.59767C73.6149 5.131 73.8342 4.73434 74.1142 4.40767C74.4036 4.07167 74.7442 3.81501 75.1362 3.63767C75.5376 3.46034 75.9856 3.37167 76.4802 3.37167C76.9656 3.37167 77.3996 3.46034 77.7822 3.63767C78.1649 3.81501 78.4916 4.06234 78.7622 4.37967C79.0329 4.68767 79.2382 5.05634 79.3782 5.48567C79.5276 5.915 79.6022 6.38634 79.6022 6.89967V7.43167H74.4082V7.76767C74.4082 8.07567 74.4549 8.36501 74.5482 8.63567C74.6509 8.89701 74.7909 9.12567 74.9682 9.32167C75.1549 9.51767 75.3789 9.67167 75.6402 9.78367C75.9109 9.89567 76.2142 9.95167 76.5502 9.95167C77.0076 9.95167 77.4042 9.84434 77.7402 9.62967C78.0856 9.41501 78.3516 9.10701 78.5382 8.70567L79.3362 9.27967C79.1029 9.77434 78.7389 10.1757 78.2442 10.4837C77.7496 10.7823 77.1616 10.9317 76.4802 10.9317ZM76.4802 4.30967C76.1722 4.30967 75.8922 4.36567 75.6402 4.47767C75.3882 4.58034 75.1689 4.72967 74.9822 4.92567C74.8049 5.12167 74.6649 5.355 74.5622 5.62567C74.4596 5.887 74.4082 6.17634 74.4082 6.49367V6.59167H78.3982V6.43767C78.3982 5.79367 78.2209 5.28034 77.8662 4.89767C77.5209 4.50567 77.0589 4.30967 76.4802 4.30967ZM83.6178 10.9317C82.9458 10.9317 82.3811 10.8057 81.9238 10.5537C81.4758 10.2923 81.0885 9.94701 80.7618 9.51767L81.5598 8.87367C81.8398 9.22834 82.1525 9.50367 82.4978 9.69967C82.8431 9.88634 83.2445 9.97967 83.7018 9.97967C84.1778 9.97967 84.5465 9.87701 84.8078 9.67167C85.0785 9.46634 85.2138 9.17701 85.2138 8.80367C85.2138 8.52367 85.1205 8.28567 84.9338 8.08967C84.7565 7.88434 84.4298 7.74434 83.9538 7.66967L83.3798 7.58567C83.0438 7.53901 82.7358 7.46901 82.4558 7.37567C82.1758 7.273 81.9285 7.14234 81.7138 6.98367C81.5085 6.81567 81.3451 6.61034 81.2238 6.36767C81.1118 6.12501 81.0558 5.83567 81.0558 5.49967C81.0558 5.145 81.1211 4.837 81.2518 4.57567C81.3825 4.305 81.5598 4.08101 81.7838 3.90367C82.0171 3.72634 82.2925 3.59567 82.6098 3.51167C82.9271 3.41834 83.2678 3.37167 83.6318 3.37167C84.2198 3.37167 84.7098 3.47434 85.1018 3.67967C85.5031 3.885 85.8531 4.16967 86.1518 4.53367L85.4098 5.20567C85.2511 4.98167 85.0178 4.781 84.7098 4.60367C84.4018 4.41701 84.0145 4.32367 83.5478 4.32367C83.0811 4.32367 82.7265 4.42634 82.4838 4.63167C82.2505 4.82767 82.1338 5.09834 82.1338 5.44367C82.1338 5.79834 82.2505 6.05501 82.4838 6.21367C82.7265 6.37234 83.0718 6.489 83.5198 6.56367L84.0798 6.64767C84.8825 6.76901 85.4518 7.00234 85.7878 7.34767C86.1238 7.68367 86.2918 8.12701 86.2918 8.67767C86.2918 9.37767 86.0538 9.92834 85.5778 10.3297C85.1018 10.731 84.4485 10.9317 83.6178 10.9317ZM90.9861 10.9317C90.4914 10.9317 90.0434 10.843 89.6421 10.6657C89.2501 10.4883 88.9094 10.2363 88.6201 9.90967C88.3401 9.57367 88.1207 9.17701 87.9621 8.71967C87.8127 8.25301 87.7381 7.73034 87.7381 7.15167C87.7381 6.58234 87.8127 6.06434 87.9621 5.59767C88.1207 5.131 88.3401 4.73434 88.6201 4.40767C88.9094 4.07167 89.2501 3.81501 89.6421 3.63767C90.0434 3.46034 90.4914 3.37167 90.9861 3.37167C91.4714 3.37167 91.9054 3.46034 92.2881 3.63767C92.6707 3.81501 92.9974 4.06234 93.2681 4.37967C93.5387 4.68767 93.7441 5.05634 93.8841 5.48567C94.0334 5.915 94.1081 6.38634 94.1081 6.89967V7.43167H88.9141V7.76767C88.9141 8.07567 88.9607 8.36501 89.0541 8.63567C89.1567 8.89701 89.2967 9.12567 89.4741 9.32167C89.6607 9.51767 89.8847 9.67167 90.1461 9.78367C90.4167 9.89567 90.7201 9.95167 91.0561 9.95167C91.5134 9.95167 91.9101 9.84434 92.2461 9.62967C92.5914 9.41501 92.8574 9.10701 93.0441 8.70567L93.8421 9.27967C93.6087 9.77434 93.2447 10.1757 92.7501 10.4837C92.2554 10.7823 91.6674 10.9317 90.9861 10.9317ZM90.9861 4.30967C90.6781 4.30967 90.3981 4.36567 90.1461 4.47767C89.8941 4.58034 89.6747 4.72967 89.4881 4.92567C89.3107 5.12167 89.1707 5.355 89.0681 5.62567C88.9654 5.887 88.9141 6.17634 88.9141 6.49367V6.59167H92.9041V6.43767C92.9041 5.79367 92.7267 5.28034 92.3721 4.89767C92.0267 4.50567 91.5647 4.30967 90.9861 4.30967ZM95.9537 10.7637V3.53967H97.0737V4.71567H97.1297C97.307 4.30501 97.5543 3.97834 97.8717 3.73567C98.1983 3.49301 98.6323 3.37167 99.1737 3.37167C99.9203 3.37167 100.508 3.61434 100.938 4.09967C101.376 4.57567 101.596 5.25234 101.596 6.12967V10.7637H100.476V6.32567C100.476 5.02834 99.9297 4.37967 98.8377 4.37967C98.6137 4.37967 98.3943 4.40767 98.1797 4.46367C97.9743 4.51967 97.7877 4.60367 97.6197 4.71567C97.4517 4.82767 97.3163 4.97234 97.2137 5.14967C97.1203 5.31767 97.0737 5.51834 97.0737 5.75167V10.7637H95.9537ZM105.397 10.7637L102.863 3.53967H103.983L105.243 7.12367L106.027 9.58767H106.097L106.881 7.12367L108.169 3.53967H109.247L106.699 10.7637H105.397ZM113.313 10.9317C112.827 10.9317 112.384 10.843 111.983 10.6657C111.581 10.4883 111.236 10.2363 110.947 9.90967C110.667 9.57367 110.447 9.17701 110.289 8.71967C110.13 8.25301 110.051 7.73034 110.051 7.15167C110.051 6.58234 110.13 6.06434 110.289 5.59767C110.447 5.131 110.667 4.73434 110.947 4.40767C111.236 4.07167 111.581 3.81501 111.983 3.63767C112.384 3.46034 112.827 3.37167 113.313 3.37167C113.798 3.37167 114.237 3.46034 114.629 3.63767C115.03 3.81501 115.375 4.07167 115.665 4.40767C115.954 4.73434 116.178 5.131 116.337 5.59767C116.495 6.06434 116.575 6.58234 116.575 7.15167C116.575 7.73034 116.495 8.25301 116.337 8.71967C116.178 9.17701 115.954 9.57367 115.665 9.90967C115.375 10.2363 115.03 10.4883 114.629 10.6657C114.237 10.843 113.798 10.9317 113.313 10.9317ZM113.313 9.93767C113.919 9.93767 114.414 9.75101 114.797 9.37767C115.179 9.00434 115.371 8.43501 115.371 7.66967V6.63367C115.371 5.86834 115.179 5.29901 114.797 4.92567C114.414 4.55234 113.919 4.36567 113.313 4.36567C112.706 4.36567 112.211 4.55234 111.829 4.92567C111.446 5.29901 111.255 5.86834 111.255 6.63367V7.66967C111.255 8.43501 111.446 9.00434 111.829 9.37767C112.211 9.75101 112.706 9.93767 113.313 9.93767ZM119.607 10.7637C119.215 10.7637 118.916 10.6563 118.711 10.4417C118.515 10.2177 118.417 9.93767 118.417 9.60167V0.403672H119.537V9.78367H120.601V10.7637H119.607ZM123.69 10.7637L121.156 3.53967H122.276L123.536 7.12367L124.32 9.58767H124.39L125.174 7.12367L126.462 3.53967H127.54L124.992 10.7637H123.69ZM131.592 10.9317C131.097 10.9317 130.649 10.843 130.248 10.6657C129.856 10.4883 129.515 10.2363 129.226 9.90967C128.946 9.57367 128.726 9.17701 128.568 8.71967C128.418 8.25301 128.344 7.73034 128.344 7.15167C128.344 6.58234 128.418 6.06434 128.568 5.59767C128.726 5.131 128.946 4.73434 129.226 4.40767C129.515 4.07167 129.856 3.81501 130.248 3.63767C130.649 3.46034 131.097 3.37167 131.592 3.37167C132.077 3.37167 132.511 3.46034 132.894 3.63767C133.276 3.81501 133.603 4.06234 133.874 4.37967C134.144 4.68767 134.35 5.05634 134.49 5.48567C134.639 5.915 134.714 6.38634 134.714 6.89967V7.43167H129.52V7.76767C129.52 8.07567 129.566 8.36501 129.66 8.63567C129.762 8.89701 129.902 9.12567 130.08 9.32167C130.266 9.51767 130.49 9.67167 130.752 9.78367C131.022 9.89567 131.326 9.95167 131.662 9.95167C132.119 9.95167 132.516 9.84434 132.852 9.62967C133.197 9.41501 133.463 9.10701 133.65 8.70567L134.448 9.27967C134.214 9.77434 133.85 10.1757 133.356 10.4837C132.861 10.7823 132.273 10.9317 131.592 10.9317ZM131.592 4.30967C131.284 4.30967 131.004 4.36567 130.752 4.47767C130.5 4.58034 130.28 4.72967 130.094 4.92567C129.916 5.12167 129.776 5.355 129.674 5.62567C129.571 5.887 129.52 6.17634 129.52 6.49367V6.59167H133.51V6.43767C133.51 5.79367 133.332 5.28034 132.978 4.89767C132.632 4.50567 132.17 4.30967 131.592 4.30967Z" fill="black"/>
</svg>
