<svg width="82" height="15" viewBox="0 0 82 15" fill="none" xmlns="http://www.w3.org/2000/svg">
<path d="M1.42917 11.2363H0.253172V1.46433H4.14517C5.00384 1.46433 5.67117 1.70233 6.14717 2.17833C6.63251 2.65433 6.87517 3.34033 6.87517 4.23633C6.87517 4.95499 6.70717 5.54766 6.37117 6.01433C6.04451 6.47166 5.55917 6.77499 4.91517 6.92433L7.15517 11.2363H5.82517L3.71117 7.03633H1.42917V11.2363ZM4.14517 6.02833C4.61184 6.02833 4.97117 5.90699 5.22317 5.66433C5.48451 5.42166 5.61517 5.07633 5.61517 4.62833V3.90033C5.61517 3.45233 5.48451 3.10699 5.22317 2.86433C4.97117 2.62166 4.61184 2.50033 4.14517 2.50033H1.42917V6.02833H4.14517ZM11.6072 11.4043C11.1125 11.4043 10.6645 11.3157 10.2632 11.1383C9.87117 10.961 9.53051 10.709 9.24117 10.3823C8.96117 10.0463 8.74184 9.64966 8.58317 9.19233C8.43384 8.72566 8.35917 8.20299 8.35917 7.62433C8.35917 7.05499 8.43384 6.53699 8.58317 6.07033C8.74184 5.60366 8.96117 5.20699 9.24117 4.88033C9.53051 4.54433 9.87117 4.28766 10.2632 4.11033C10.6645 3.93299 11.1125 3.84433 11.6072 3.84433C12.0925 3.84433 12.5265 3.93299 12.9092 4.11033C13.2918 4.28766 13.6185 4.53499 13.8892 4.85233C14.1598 5.16033 14.3652 5.52899 14.5052 5.95833C14.6545 6.38766 14.7292 6.85899 14.7292 7.37233V7.90433H9.53517V8.24033C9.53517 8.54833 9.58184 8.83766 9.67517 9.10833C9.77784 9.36966 9.91784 9.59833 10.0952 9.79433C10.2818 9.99033 10.5058 10.1443 10.7672 10.2563C11.0378 10.3683 11.3412 10.4243 11.6772 10.4243C12.1345 10.4243 12.5312 10.317 12.8672 10.1023C13.2125 9.88766 13.4785 9.57966 13.6652 9.17833L14.4632 9.75233C14.2298 10.247 13.8658 10.6483 13.3712 10.9563C12.8765 11.255 12.2885 11.4043 11.6072 11.4043ZM11.6072 4.78233C11.2992 4.78233 11.0192 4.83833 10.7672 4.95033C10.5152 5.05299 10.2958 5.20233 10.1092 5.39833C9.93184 5.59433 9.79184 5.82766 9.68917 6.09833C9.58651 6.35966 9.53517 6.64899 9.53517 6.96633V7.06433H13.5252V6.91033C13.5252 6.26633 13.3478 5.75299 12.9932 5.37033C12.6478 4.97833 12.1858 4.78233 11.6072 4.78233ZM22.6648 12.0343C22.6648 12.781 22.3708 13.327 21.7828 13.6723C21.2041 14.027 20.3314 14.2043 19.1648 14.2043C18.0354 14.2043 17.2234 14.0503 16.7288 13.7423C16.2341 13.4343 15.9868 12.9957 15.9868 12.4263C15.9868 12.0343 16.0894 11.7263 16.2948 11.5023C16.5001 11.2877 16.7801 11.129 17.1348 11.0263V10.8723C16.7054 10.667 16.4908 10.331 16.4908 9.86433C16.4908 9.50033 16.6074 9.22499 16.8408 9.03833C17.0741 8.84233 17.3728 8.69766 17.7368 8.60433V8.54833C17.3074 8.34299 16.9714 8.04899 16.7288 7.66633C16.4954 7.28366 16.3788 6.84033 16.3788 6.33633C16.3788 5.97233 16.4441 5.63633 16.5748 5.32833C16.7054 5.02033 16.8874 4.75899 17.1208 4.54433C17.3634 4.32033 17.6481 4.14766 17.9748 4.02633C18.3108 3.90499 18.6841 3.84433 19.0948 3.84433C19.6081 3.84433 20.0654 3.93766 20.4668 4.12433V3.99833C20.4668 3.71833 20.5321 3.48966 20.6628 3.31233C20.7934 3.12566 21.0081 3.03233 21.3068 3.03233H22.3848V4.01233H21.0128V4.47433C21.2741 4.69833 21.4748 4.96899 21.6148 5.28633C21.7641 5.59433 21.8388 5.94433 21.8388 6.33633C21.8388 6.70033 21.7734 7.03633 21.6428 7.34433C21.5121 7.65233 21.3254 7.91833 21.0828 8.14233C20.8494 8.35699 20.5648 8.52499 20.2288 8.64633C19.8928 8.76766 19.5194 8.82833 19.1088 8.82833C18.8754 8.82833 18.6421 8.80499 18.4088 8.75833C18.1661 8.82366 17.9468 8.92166 17.7508 9.05233C17.5548 9.17366 17.4568 9.34633 17.4568 9.57033C17.4568 9.78499 17.5594 9.92966 17.7648 10.0043C17.9701 10.079 18.2361 10.1163 18.5628 10.1163H20.1028C20.9988 10.1163 21.6474 10.289 22.0488 10.6343C22.4594 10.9703 22.6648 11.437 22.6648 12.0343ZM21.6148 12.1183C21.6148 11.829 21.5028 11.5957 21.2788 11.4183C21.0641 11.2503 20.6768 11.1663 20.1168 11.1663H17.7088C17.2608 11.3717 17.0368 11.6983 17.0368 12.1463C17.0368 12.4637 17.1534 12.7343 17.3868 12.9583C17.6294 13.1823 18.0354 13.2943 18.6048 13.2943H19.6408C20.2661 13.2943 20.7514 13.1963 21.0968 13.0003C21.4421 12.8043 21.6148 12.5103 21.6148 12.1183ZM19.1088 7.93233C19.5848 7.93233 19.9628 7.82033 20.2428 7.59633C20.5228 7.36299 20.6628 7.00833 20.6628 6.53233V6.14033C20.6628 5.66433 20.5228 5.31433 20.2428 5.09033C19.9628 4.85699 19.5848 4.74033 19.1088 4.74033C18.6328 4.74033 18.2548 4.85699 17.9748 5.09033C17.6948 5.31433 17.5548 5.66433 17.5548 6.14033V6.53233C17.5548 7.00833 17.6948 7.36299 17.9748 7.59633C18.2548 7.82033 18.6328 7.93233 19.1088 7.93233ZM28.3686 10.0603H28.3126C28.2379 10.2283 28.1446 10.3963 28.0326 10.5643C27.9299 10.723 27.7992 10.8677 27.6406 10.9983C27.4819 11.1197 27.2906 11.2177 27.0666 11.2923C26.8426 11.367 26.5812 11.4043 26.2826 11.4043C25.5359 11.4043 24.9432 11.1663 24.5046 10.6903C24.0659 10.205 23.8466 9.52366 23.8466 8.64633V4.01233H24.9666V8.45033C24.9666 9.74766 25.5172 10.3963 26.6186 10.3963C26.8426 10.3963 27.0572 10.3683 27.2626 10.3123C27.4772 10.2563 27.6639 10.1723 27.8226 10.0603C27.9906 9.94833 28.1212 9.80833 28.2146 9.64033C28.3172 9.46299 28.3686 9.25299 28.3686 9.01033V4.01233H29.4886V11.2363H28.3686V10.0603ZM33.0636 11.2363C32.6716 11.2363 32.3729 11.129 32.1676 10.9143C31.9716 10.6903 31.8736 10.4103 31.8736 10.0743V0.876328H32.9936V10.2563H34.0576V11.2363H33.0636ZM40.938 11.2363C40.518 11.2363 40.2147 11.1243 40.028 10.9003C39.8507 10.6763 39.7387 10.3963 39.692 10.0603H39.622C39.4634 10.5083 39.202 10.8443 38.838 11.0683C38.474 11.2923 38.04 11.4043 37.536 11.4043C36.7707 11.4043 36.1734 11.2083 35.744 10.8163C35.324 10.4243 35.114 9.89233 35.114 9.22033C35.114 8.53899 35.3614 8.01633 35.856 7.65233C36.36 7.28833 37.1394 7.10633 38.194 7.10633H39.622V6.39233C39.622 5.87899 39.482 5.48699 39.202 5.21633C38.922 4.94566 38.4927 4.81033 37.914 4.81033C37.4754 4.81033 37.1067 4.90833 36.808 5.10433C36.5187 5.30033 36.276 5.56166 36.08 5.88833L35.408 5.25833C35.604 4.86633 35.9167 4.53499 36.346 4.26433C36.7754 3.98433 37.3167 3.84433 37.97 3.84433C38.8474 3.84433 39.5287 4.05899 40.014 4.48833C40.4994 4.91766 40.742 5.51499 40.742 6.28033V10.2563H41.568V11.2363H40.938ZM37.718 10.4523C37.998 10.4523 38.2547 10.4197 38.488 10.3543C38.7214 10.289 38.922 10.1957 39.09 10.0743C39.258 9.95299 39.3887 9.81299 39.482 9.65433C39.5754 9.49566 39.622 9.32299 39.622 9.13633V7.94633H38.138C37.494 7.94633 37.0227 8.03966 36.724 8.22633C36.4347 8.41299 36.29 8.68366 36.29 9.03833V9.33233C36.29 9.68699 36.416 9.96233 36.668 10.1583C36.9294 10.3543 37.2794 10.4523 37.718 10.4523ZM43.1666 11.2363V4.01233H44.2866V5.18833H44.3426C44.4266 5.00166 44.5199 4.82899 44.6226 4.67033C44.7346 4.50233 44.8652 4.35766 45.0146 4.23633C45.1732 4.11499 45.3552 4.02166 45.5606 3.95633C45.7659 3.88166 46.0086 3.84433 46.2886 3.84433C46.7646 3.84433 47.2032 3.96099 47.6046 4.19433C48.0059 4.41833 48.3046 4.79166 48.5006 5.31433H48.5286C48.6592 4.92233 48.9019 4.58166 49.2566 4.29233C49.6206 3.99366 50.1106 3.84433 50.7266 3.84433C51.4639 3.84433 52.0379 4.08699 52.4486 4.57233C52.8686 5.04833 53.0786 5.72499 53.0786 6.60233V11.2363H51.9586V6.79833C51.9586 6.15433 51.8326 5.66899 51.5806 5.34233C51.3286 5.01566 50.9272 4.85233 50.3766 4.85233C50.1526 4.85233 49.9379 4.88033 49.7326 4.93633C49.5366 4.99233 49.3592 5.07633 49.2006 5.18833C49.0419 5.30033 48.9159 5.44499 48.8226 5.62233C48.7292 5.79033 48.6826 5.99099 48.6826 6.22433V11.2363H47.5626V6.79833C47.5626 6.15433 47.4366 5.66899 47.1846 5.34233C46.9326 5.01566 46.5406 4.85233 46.0086 4.85233C45.7846 4.85233 45.5699 4.88033 45.3646 4.93633C45.1592 4.99233 44.9772 5.07633 44.8186 5.18833C44.6599 5.30033 44.5292 5.44499 44.4266 5.62233C44.3332 5.79033 44.2866 5.99099 44.2866 6.22433V11.2363H43.1666ZM58.1052 11.4043C57.6106 11.4043 57.1626 11.3157 56.7612 11.1383C56.3692 10.961 56.0286 10.709 55.7392 10.3823C55.4592 10.0463 55.2399 9.64966 55.0812 9.19233C54.9319 8.72566 54.8572 8.20299 54.8572 7.62433C54.8572 7.05499 54.9319 6.53699 55.0812 6.07033C55.2399 5.60366 55.4592 5.20699 55.7392 4.88033C56.0286 4.54433 56.3692 4.28766 56.7612 4.11033C57.1626 3.93299 57.6106 3.84433 58.1052 3.84433C58.5906 3.84433 59.0246 3.93299 59.4072 4.11033C59.7899 4.28766 60.1166 4.53499 60.3872 4.85233C60.6579 5.16033 60.8632 5.52899 61.0032 5.95833C61.1526 6.38766 61.2272 6.85899 61.2272 7.37233V7.90433H56.0332V8.24033C56.0332 8.54833 56.0799 8.83766 56.1732 9.10833C56.2759 9.36966 56.4159 9.59833 56.5932 9.79433C56.7799 9.99033 57.0039 10.1443 57.2652 10.2563C57.5359 10.3683 57.8392 10.4243 58.1752 10.4243C58.6326 10.4243 59.0292 10.317 59.3652 10.1023C59.7106 9.88766 59.9766 9.57966 60.1632 9.17833L60.9612 9.75233C60.7279 10.247 60.3639 10.6483 59.8692 10.9563C59.3746 11.255 58.7866 11.4043 58.1052 11.4043ZM58.1052 4.78233C57.7972 4.78233 57.5172 4.83833 57.2652 4.95033C57.0132 5.05299 56.7939 5.20233 56.6072 5.39833C56.4299 5.59433 56.2899 5.82766 56.1872 6.09833C56.0846 6.35966 56.0332 6.64899 56.0332 6.96633V7.06433H60.0232V6.91033C60.0232 6.26633 59.8459 5.75299 59.4912 5.37033C59.1459 4.97833 58.6839 4.78233 58.1052 4.78233ZM63.0728 11.2363V4.01233H64.1928V5.18833H64.2488C64.4261 4.77766 64.6735 4.45099 64.9908 4.20833C65.3175 3.96566 65.7515 3.84433 66.2928 3.84433C67.0395 3.84433 67.6275 4.08699 68.0568 4.57233C68.4955 5.04833 68.7148 5.72499 68.7148 6.60233V11.2363H67.5948V6.79833C67.5948 5.50099 67.0488 4.85233 65.9568 4.85233C65.7328 4.85233 65.5135 4.88033 65.2988 4.93633C65.0935 4.99233 64.9068 5.07633 64.7388 5.18833C64.5708 5.30033 64.4355 5.44499 64.3328 5.62233C64.2395 5.79033 64.1928 5.99099 64.1928 6.22433V11.2363H63.0728ZM72.6258 11.2363C72.2338 11.2363 71.9352 11.129 71.7298 10.9143C71.5338 10.6903 71.4358 10.401 71.4358 10.0463V4.99233H70.2458V4.01233H70.9178C71.1605 4.01233 71.3238 3.96566 71.4078 3.87233C71.5012 3.76966 71.5478 3.59699 71.5478 3.35433V2.01033H72.5558V4.01233H74.1378V4.99233H72.5558V10.2563H74.0258V11.2363H72.6258ZM78.6134 11.4043C78.128 11.4043 77.6847 11.3157 77.2834 11.1383C76.882 10.961 76.5367 10.709 76.2474 10.3823C75.9674 10.0463 75.748 9.64966 75.5894 9.19233C75.4307 8.72566 75.3514 8.20299 75.3514 7.62433C75.3514 7.05499 75.4307 6.53699 75.5894 6.07033C75.748 5.60366 75.9674 5.20699 76.2474 4.88033C76.5367 4.54433 76.882 4.28766 77.2834 4.11033C77.6847 3.93299 78.128 3.84433 78.6134 3.84433C79.0987 3.84433 79.5374 3.93299 79.9294 4.11033C80.3307 4.28766 80.676 4.54433 80.9654 4.88033C81.2547 5.20699 81.4787 5.60366 81.6374 6.07033C81.796 6.53699 81.8754 7.05499 81.8754 7.62433C81.8754 8.20299 81.796 8.72566 81.6374 9.19233C81.4787 9.64966 81.2547 10.0463 80.9654 10.3823C80.676 10.709 80.3307 10.961 79.9294 11.1383C79.5374 11.3157 79.0987 11.4043 78.6134 11.4043ZM78.6134 10.4103C79.22 10.4103 79.7147 10.2237 80.0974 9.85033C80.48 9.47699 80.6714 8.90766 80.6714 8.14233V7.10633C80.6714 6.34099 80.48 5.77166 80.0974 5.39833C79.7147 5.02499 79.22 4.83833 78.6134 4.83833C78.0067 4.83833 77.512 5.02499 77.1294 5.39833C76.7467 5.77166 76.5554 6.34099 76.5554 7.10633V8.14233C76.5554 8.90766 76.7467 9.47699 77.1294 9.85033C77.512 10.2237 78.0067 10.4103 78.6134 10.4103Z" fill="black"/>
</svg>
